<svg xmlns="http://www.w3.org/2000/svg" width="1100" height="650" viewBox="0 0 1100 650">
<style>text{font-family:Arial,sans-serif;fill:#111}.title{font-size:26px;font-weight:700}.node{fill:#fff;stroke:#222;stroke-width:2}.label{font-size:15px;font-weight:600;text-anchor:middle}.small{font-size:12px;text-anchor:middle}.edge{stroke:#333;stroke-width:2;fill:none;marker-end:url(#arrow)}.optional{stroke-dasharray:7 6}</style>
<defs><marker id="arrow" markerWidth="10" markerHeight="10" refX="9" refY="3" orient="auto"><path d="M0,0 L0,6 L9,3 z" fill="#333"/></marker></defs>
<text class="title" x="35" y="42">ESPressio Serializable 0.11.3 Cascade — Command 1.0.3</text>
<rect class="node" x="35" y="105" width="190" height="60" rx="8"/><text class="label" x="130" y="138">Serializable 0.11.3</text>
<rect class="node" x="270" y="105" width="160" height="60" rx="8"/><text class="label" x="350" y="138">Units 0.2.7</text>
<rect class="node" x="475" y="105" width="170" height="60" rx="8"/><text class="label" x="560" y="138">Timing 2.2.8</text>
<rect class="node" x="690" y="105" width="175" height="60" rx="8"/><text class="label" x="777" y="138">Threads 3.1.7</text>
<path class="edge optional" d="M270 135 L225 135"/><path class="edge" d="M475 135 L430 135"/><path class="edge" d="M690 135 L645 135"/>
<rect class="node" x="450" y="255" width="220" height="70" rx="8"/><text class="label" x="560" y="287">Event 6.0.3</text><text class="small" x="560" y="306">generic Event mechanism</text>
<path class="edge" d="M515 255 L550 165"/><path class="edge" d="M610 255 L745 165"/><path class="edge optional" d="M475 270 L185 165"/>
<rect class="node" x="380" y="430" width="240" height="72" rx="8"/><text class="label" x="500" y="460">Command 1.0.3</text><text class="small" x="500" y="480">required: Observable 3.0.2</text>
<path class="edge optional" d="M500 430 L545 325"/>
<rect class="node" x="745" y="430" width="210" height="72" rx="8"/><text class="label" x="850" y="460">Downstream consumers</text><text class="small" x="850" y="480">next cascade patches</text>
<path class="edge optional" d="M745 466 L620 466"/>
<text class="small" x="550" y="565">Solid arrows: required. Dashed arrows: opt-in/transitive integration.</text>
<text class="small" x="550" y="590">Command core remains Event-free; Command-owned Event integration targets released Event 6.0.3.</text>
</svg>
